<svg id="Layer_1" data-name="Layer 1" xmlns="http://www.w3.org/2000/svg" viewBox="0 0 126.13 119.53"><defs><style>.cls-1{fill:#049694;}.cls-2{fill:#3cbda9;}.cls-3{fill:#eee7e3;}</style></defs><title>logo</title><path class="cls-1" d="M1.79,1.26c.26,1.12.34,15.19.33,33.3l86,86h39.59S4.31,4.47,1.79,1.26Z" transform="translate(-1.6 -1.18)"/><path class="cls-2" d="M1.75,120.57H88.13l-86-86C2.1,69.88,1.75,120.57,1.75,120.57Z" transform="translate(-1.6 -1.18)"/><path class="cls-2" d="M1.75,1.19s0,0,0,.07S1.76,1.17,1.75,1.19Z" transform="translate(-1.6 -1.18)"/><text x="-1.6" y="-1.18"/><path class="cls-3" d="M60.14,56.94c-4.24,5.26-19.9,42.75,1.61,63.78C38.33,104,30.57,93.87,29.84,92S45.36,56.09,60.14,56.94Z" transform="translate(-1.6 -1.18)"/><path class="cls-3" d="M3.21,56.54C7.45,61.8,23.11,99.3,1.6,120.32,25,103.56,32.78,93.47,33.51,91.63S18,55.69,3.21,56.54Z" transform="translate(-1.6 -1.18)"/></svg>